<svg xmlns="http://www.w3.org/2000/svg" height="24" viewBox="0 0 24 24" width="24">
  <path d="M 8 5 C 6.9000011 5 6 5.9000011 6 7 L 6 9 L 8 9 L 8 7 L 9.5 7 L 9.5 5 L 8 5 z M 11 5 L 11 7 L 12.75 7 L 12.75 5 L 11 5 z M 14.25 5 L 14.25 7 L 16 7 L 16 5 L 14.25 5 z M 17.5 5 L 17.5 7 L 19 7 L 19 9 L 21 9 L 21 7 C 21 5.9000011 20.099999 5 19 5 L 17.5 5 z M 6 11 L 6 13 L 8 13 L 8 11 L 6 11 z M 19 11 L 19 13 L 21 13 L 21 11 L 19 11 z M 6 15 L 6 17 L 8 17 L 8 15 L 6 15 z M 19 15 L 19 17 L 21 17 L 21 15 L 19 15 z M 6 19 L 6 21 C 6 22.099999 6.9000011 23 8 23 L 9.5 23 L 9.5 21 L 8 21 L 8 19 L 6 19 z M 19 19 L 19 21 L 17.5 21 L 17.5 23 L 19 23 C 20.099999 23 21 22.099999 21 21 L 21 19 L 19 19 z M 11 21 L 11 23 L 12.75 23 L 12.75 21 L 11 21 z M 14.25 21 L 14.25 23 L 16 23 L 16 21 L 14.25 21 z "/>
  <path d="M 16,1 H 4 C 2.9,1 2,1.9 2,3 V 17 H 4 V 3 h 12 z"/>
</svg>
